<?xml version="1.0" encoding="UTF-8"?>
<svg width="153px" height="34px" viewBox="0 0 153 34" version="1.1" xmlns="http://www.w3.org/2000/svg" xmlns:xlink="http://www.w3.org/1999/xlink">
    <title>gw-icon-logo</title>
    <defs>
        <linearGradient x1="50%" y1="0%" x2="50%" y2="100%" id="linearGradient-1">
            <stop stop-color="#E5EDFF" offset="0%"></stop>
            <stop stop-color="#8D93A2" offset="100%"></stop>
        </linearGradient>
        <path d="M3.71635943,23.361523 C4.36130677,23.361523 4.91901486,23.4864582 5.38948369,23.7363285 C6.07181928,24.0955172 6.48932142,24.7248781 6.64199012,25.6244113 L6.64199012,25.6244113 L5.72130442,25.6244113 L5.6736198,25.4422426 C5.5492357,25.0321283 5.33301185,24.726635 5.02494824,24.5257626 C4.67287554,24.2961943 4.22889005,24.1814101 3.69299178,24.1814101 C3.0573915,24.1814101 2.52227215,24.4203486 2.08763373,24.8982256 C1.6529953,25.3761026 1.43567609,26.0882331 1.43567609,27.034617 C1.43567609,27.8529424 1.61482813,28.519003 1.97313221,29.0327989 C2.33143628,29.5465948 2.91562771,29.8034927 3.7257065,29.8034927 C4.34572833,29.8034927 4.85903787,29.6231176 5.26563511,29.2623673 C5.67223234,28.901617 5.88020449,28.3183259 5.88955155,27.512494 L5.88955155,27.512494 L3.73972709,27.512494 L3.73972709,26.7394577 L6.75415487,26.7394577 L6.75415487,30.4219218 L6.15594285,30.4219218 L5.93161334,29.5364438 L5.77725698,29.7009418 C5.52497283,29.9603558 5.2975709,30.1460233 5.09505121,30.2579444 C4.68689613,30.4890745 4.16813414,30.6046395 3.53876524,30.6046395 C2.72557077,30.6046395 2.0260989,30.340714 1.44034962,29.8128629 C0.801633658,29.1507065 0.482275676,28.2418031 0.482275676,27.0861528 C0.482275676,25.9336258 0.793844439,25.016914 1.41698196,24.3360174 C2.00896261,23.6863545 2.77542177,23.361523 3.71635943,23.361523 Z M18.3870518,0.10099969 L18.1351743,1.36349581 L24.7847383,1.36349581 L24.0794815,4.29248682 L23.575,4.292 L23.5757267,9.94846946 L20.9562015,14.1904564 L24.3817344,19.9474388 L20.8554505,19.9474388 L19.1930595,17.0184477 L17.2787911,19.8969389 L13.9036337,19.8969389 L17.8329214,14.2914561 L13.9540092,8.13047504 L17.4299176,8.13047504 L19.4953124,11.6654642 L20.9562015,9.08997209 L20.956,4.292 L17.5306685,4.29248682 L16.9765382,7.47397705 L13.8532582,7.47397705 L15.3141472,0.10099969 L18.3870518,0.10099969 Z M11.233733,0.10099969 C11.5863614,0.10099969 11.8886143,0.20199938 12.0901162,0.454498605 C12.3419937,0.706997829 12.4427446,1.0099969 12.4427446,1.31299597 L12.4427446,4.24198698 L14.1051356,4.24198698 L14.1051356,4.29248682 L13.4502543,6.61547969 L12.392,6.615 L12.3923691,15.957951 L14.2562621,15.957951 L13.6517562,18.5334431 L12.3923691,18.5334431 L12.3923691,19.9474388 L9.67209299,19.9474388 L9.67209299,18.5334431 L0.0503754843,18.5334431 L0.604505812,15.957951 L1.76314195,15.957951 L1.763,6.615 L0,6.61547969 L0.654881296,4.29248682 L9.67209299,4.29248682 L9.67209299,2.72699163 C9.67209299,2.67649178 9.6217175,2.62599194 9.57134202,2.57549209 C9.52096653,2.52499225 9.47059105,2.4744924 9.36984008,2.4744924 L1.10826065,2.4744924 L2.11577034,0.10099969 L11.233733,0.10099969 Z M87.1999633,0.10099969 L84.9330665,6.31248062 L85.6886988,6.31248062 L85.6886988,19.9474388 L82.2127904,19.9474388 L82.2127904,9.59497054 L80.0466446,9.59497054 L83.522553,0.10099969 L87.1999633,0.10099969 Z M97.8291905,0.10099969 L97.8291905,2.92899101 L104.025375,2.92899101 L102.514111,5.75698232 L97.8291905,5.75698232 L97.8291905,11.5139646 L104.629881,11.5139646 L103.118616,14.341956 L97.8291905,14.341956 L97.8291905,19.9474388 L94.554784,19.9474388 L94.554784,14.341956 L86.3435801,14.341956 L87.8548446,11.5139646 L94.6051595,11.5139646 L94.6051595,5.75698232 L90.9277492,5.75698232 L89.970615,9.79696992 L86.5954575,9.79696992 L89.0134808,0.656497984 L92.3886382,0.656497984 L91.7841324,2.92899101 L94.554784,2.92899101 L94.554784,0.10099969 L97.8291905,0.10099969 Z M58.8889411,0.10099969 L58.5866882,1.21199628 L65.0347502,1.21199628 L64.0272405,4.19148713 L57.7806805,4.19148713 L56.5716689,9.14047194 L58.4859373,9.14047194 L58.4859373,5.55498294 L61.5084663,5.55498294 L61.5084663,9.14047194 L64.8836238,9.14047194 L63.9264896,11.9179634 L61.5084663,11.9179634 L61.5084663,13.9884571 L64.8332483,13.9884571 L63.8761141,16.6649488 L61.5084663,16.6649488 L61.5084663,19.8969389 L58.4859373,19.8969389 L58.4859373,16.6649488 L53.2468869,16.6649488 L54.2543966,13.9884571 L58.4859373,13.9884571 L58.4859373,11.9179634 L53.2972624,11.9179634 L53.4483888,10.2009687 L54.9092779,4.19148713 L53.2972624,4.19148713 L54.2543966,1.21199628 L55.8160366,1.21199628 L56.1182895,0.10099969 L58.8889411,0.10099969 Z M73.2459542,6.46398015 L71.6843142,10.7059671 L73.5985826,10.7059671 L77.5782458,19.8969389 L73.9008355,19.8969389 L70.9286819,12.9784602 L68.4602832,19.8969389 L65.0347502,19.8969389 L69.8204212,6.46398015 L73.2459542,6.46398015 Z M40.5018894,0 L38.9402494,3.93898791 L49.1664727,3.93898791 C49.9221049,4.09048744 50.3754843,4.4944862 50.3754843,5.15098419 L50.3754843,5.15098419 L48.9649707,17.5234462 C48.8642198,18.1799442 48.7634688,18.6849426 48.3100894,19.1394412 C47.8567101,19.5939398 47.3025798,19.7959392 46.6980739,19.7959392 L46.6980739,19.7959392 L39.9981345,19.7959392 L41.6605255,16.7154487 L44.8845565,16.7154487 C45.1364339,16.7154487 45.2875604,16.614449 45.4386868,16.4629495 C45.5898133,16.3114499 45.5898133,16.1094505 45.6401888,15.9074512 L45.6401888,15.9074512 L46.7988249,6.86797891 L37.9831152,6.86797891 L32.8951912,19.7454394 L29.0666544,19.7454394 L34.1545784,6.86797891 L27.5050144,6.86797891 L28.7644015,3.93898791 L35.3132145,3.93898791 L36.8748545,0 L40.5018894,0 Z M9.672,6.615 L4.634,6.615 L4.63454456,15.957951 L9.67209299,15.957951 L9.67209299,14.0894567 L5.49092779,14.0894567 L5.99468263,11.8169637 L9.67209299,11.8169637 L9.67209299,10.5039678 L5.49092779,10.5039678 L5.99468263,8.23147473 L9.67209299,8.23147473 L9.672,6.615 Z M42.2650313,8.88797271 L44.0281733,15.0994536 L40.5018894,15.0994536 L38.7387474,8.88797271 L42.2650313,8.88797271 Z M76.4699852,1.26249612 C76.6714871,1.26249612 76.8226136,1.31299597 77.0241155,1.41399566 C77.2256174,1.51499535 77.3767439,1.61599504 77.5278703,1.76749457 C77.6789968,1.91899411 77.7797478,2.12099349 77.8804987,2.32299287 C77.9308742,2.57549209 77.9308742,2.82799132 77.8804987,3.08049054 L76.97374,8.68597333 L73.648958,8.68597333 L74.4549658,4.4944862 L69.2662909,4.4944862 L69.8204212,1.26249612 L76.4699852,1.26249612 Z M69.3670419,0.10099969 L67.6038999,8.68597333 L64.279118,8.68597333 L66.0926354,0.10099969 L69.3670419,0.10099969 Z M32.6433138,0.20199938 L33.9027009,3.38348961 L29.9230377,3.38348961 L28.6636506,0.20199938 L32.6433138,0.20199938 Z M9.27403088,30.4219218 L10.0171224,28.3604915 L12.7324441,28.3604915 L13.4288003,30.4219218 L14.4476302,30.4219218 L11.9566379,23.5395556 L10.9050934,23.5395556 L8.32063046,30.4219218 L9.27403088,30.4219218 Z M12.4333381,27.6015104 L10.2835137,27.6015104 L11.3911406,24.5609007 L12.4333381,27.6015104 Z M16.1815103,30.4219218 L16.1815103,24.8513749 L19.7006795,30.4219218 L20.742877,30.4219218 L20.742877,23.5395556 L19.8595796,23.5395556 L19.8595796,29.1147876 L16.3918193,23.5395556 L15.2935394,23.5395556 L15.2935394,30.4219218 L16.1815103,30.4219218 Z M24.4209463,30.4219218 L26.0146205,24.7155079 L27.5989477,30.4219218 L28.5757157,30.4219218 L30.3796989,23.5395556 L29.360869,23.5395556 L28.0663008,29.1382129 L26.5146884,23.5395556 L25.5052056,23.5395556 L23.9535931,29.1382129 L22.6590249,23.5395556 L21.6495421,23.5395556 L23.4441782,30.4219218 L24.4209463,30.4219218 Z M36.4038809,30.4219218 L36.4038809,29.6020348 L32.2350908,29.6020348 L32.2350908,27.2688705 L36.0253248,27.2688705 L36.0253248,26.4724088 L32.2350908,26.4724088 L32.2350908,24.382868 L36.3337779,24.382868 L36.3337779,23.5395556 L31.3284258,23.5395556 L31.3284258,30.4219218 L36.4038809,30.4219218 Z M48.956198,23.3662081 C49.6759218,23.3662081 50.2873755,23.5403365 50.790559,23.8885933 C51.2937426,24.2368501 51.5453344,24.7935924 51.5453344,25.5588203 L51.5453344,25.5588203 L50.671384,25.5588203 L50.6436024,25.3816987 C50.5899434,25.0984255 50.4995019,24.8748003 50.372278,24.7108229 C50.0887504,24.3516342 49.6073767,24.1720399 48.9281568,24.1720399 C48.3797957,24.1720399 47.9856613,24.287605 47.7457533,24.518735 C47.5058454,24.7498651 47.3858914,25.0184757 47.3858914,25.3245669 C47.3858914,25.6618918 47.5260973,25.9086388 47.8065092,26.0648078 C47.9903348,26.1647559 48.4062791,26.2896911 49.0543421,26.4396133 L49.0543421,26.4396133 L50.0170896,26.6598115 L50.2403805,26.7161625 C50.5978191,26.8155033 50.8816929,26.9419568 51.0920018,27.0955229 C51.5281981,27.417231 51.7462962,27.8841762 51.7462962,28.4963585 C51.7462962,29.258463 51.4697789,29.8034927 50.9167444,30.1314475 C50.3637098,30.4594024 49.7210993,30.6233798 48.9889127,30.6233798 C48.1352143,30.6233798 47.4668993,30.4047432 46.9839677,29.9674701 C46.5010361,29.5333204 46.2642438,28.9445634 46.2735909,28.2011992 L46.2735909,28.2011992 L47.1475413,28.2011992 L47.1642881,28.3902938 C47.201936,28.695257 47.2882665,28.9492485 47.4232796,29.1522681 C47.7317327,29.6082815 48.2754202,29.8362882 49.0543421,29.8362882 C49.4032991,29.8362882 49.7210993,29.7863141 50.0077425,29.686366 C50.5623349,29.4927165 50.8396311,29.1460214 50.8396311,28.6462807 C50.8396311,28.2714752 50.7227928,28.0044263 50.4891163,27.8451339 C50.252324,27.688965 49.8815572,27.553098 49.3768158,27.4375329 L49.3768158,27.4375329 L48.446783,27.2267048 L48.2272731,27.1745102 C47.7345076,27.0511856 47.3777127,26.9170999 47.1568883,26.7722532 C46.7206921,26.4849023 46.5025939,26.0554376 46.5025939,25.4838592 C46.5025939,24.8654301 46.7160185,24.357881 47.1428678,23.9612118 C47.569717,23.5645427 48.1741604,23.3662081 48.956198,23.3662081 Z M55.8870451,23.3521529 C57.0990476,23.3521529 57.9963656,23.7425753 58.5789992,24.5234201 C59.0338896,25.1324791 59.2613348,25.9117622 59.2613348,26.8612695 C59.2613348,27.8888612 59.0011749,28.7431055 58.480855,29.4240021 C57.8701803,30.2235872 56.9993456,30.6233798 55.868351,30.6233798 C54.8121328,30.6233798 53.9818021,30.2735613 53.3773587,29.5739243 C52.8383447,28.8992744 52.5688378,28.0465919 52.5688378,27.0158767 C52.5688378,26.0851097 52.7993986,25.288648 53.2605204,24.6264916 C53.8525011,23.7769325 54.7280093,23.3521529 55.8870451,23.3521529 Z M38.7733613,23.5395556 L38.7733613,30.4219218 L37.8339815,30.4219218 L37.8339815,23.5395556 L38.7733613,23.5395556 Z M65.2200874,23.5395556 L65.2200874,24.382868 L61.3877916,24.382868 L61.3877916,26.4724088 L64.7574078,26.4724088 L64.7574078,27.2922958 L61.3877916,27.2922958 L61.3877916,30.4219218 L60.4577588,30.4219218 L60.4577588,23.5395556 L65.2200874,23.5395556 Z M71.2115547,23.5395556 L71.2115547,24.3594427 L68.8981566,24.3594427 L68.8981566,30.4219218 L67.9541033,30.4219218 L67.9541033,24.3594427 L65.6407052,24.3594427 L65.6407052,23.5395556 L71.2115547,23.5395556 Z M72.5154699,23.5395556 L73.8100382,29.1382129 L75.3616506,23.5395556 L76.3711334,23.5395556 L77.9227458,29.1382129 L79.217314,23.5395556 L80.2361439,23.5395556 L78.4321608,30.4219218 L77.4553927,30.4219218 L75.8710655,24.7155079 L74.2773913,30.4219218 L73.3006232,30.4219218 L71.5059872,23.5395556 L72.5154699,23.5395556 Z M83.7927013,23.5395556 L86.2836936,30.4219218 L85.2648637,30.4219218 L84.5685075,28.3604915 L81.8531858,28.3604915 L81.1100943,30.4219218 L80.1566939,30.4219218 L82.7411567,23.5395556 L83.7927013,23.5395556 Z M90.4197689,23.5395556 L90.6384711,23.5442407 C91.0646209,23.562981 91.4232429,23.6379421 91.7143371,23.769124 C92.3592844,24.0627217 92.6817581,24.604628 92.6817581,25.3948429 C92.6817581,25.807129 92.5968556,26.1444539 92.4270507,26.4068178 C92.2572457,26.6691816 92.0196745,26.8800097 91.7143371,27.0393021 C91.9822862,27.1486204 92.184027,27.2922958 92.3195594,27.4703284 C92.4550918,27.648361 92.5306473,27.9372736 92.5462257,28.3370662 L92.5462257,28.3370662 L92.5789404,29.2600247 L92.5860442,29.4093847 C92.5975099,29.597787 92.6169518,29.7432115 92.6443699,29.8456583 C92.7004522,30.0642949 92.8001542,30.204847 92.9434759,30.2673145 L92.9434759,30.2673145 L92.9434759,30.4219218 L91.8031342,30.4219218 L91.7740545,30.3568514 C91.7560527,30.3096537 91.7408205,30.254821 91.7283577,30.1923534 C91.7096636,30.0986521 91.6940851,29.9174961 91.6816224,29.6488854 L91.6816224,29.6488854 L91.62554,28.5010436 L91.6129042,28.3566162 C91.5648995,27.9861294 91.4024222,27.7328658 91.1254721,27.5968253 C90.947878,27.512494 90.6690239,27.4703284 90.28891,27.4703284 L90.28891,27.4703284 L88.1718003,27.4703284 L88.1718003,30.4219218 L87.2417675,30.4219218 L87.2417675,23.5395556 L90.4197689,23.5395556 Z M99.135905,23.5395556 L99.135905,24.382868 L95.037218,24.382868 L95.037218,26.4724088 L98.827452,26.4724088 L98.827452,27.2688705 L95.037218,27.2688705 L95.037218,29.6020348 L99.206008,29.6020348 L99.206008,30.4219218 L94.1305529,30.4219218 L94.1305529,23.5395556 L99.135905,23.5395556 Z M55.9431275,24.1814101 C55.2327507,24.1814101 54.6532328,24.4258145 54.2045738,24.9146234 C53.7559147,25.4034322 53.5315852,26.124152 53.5315852,27.0767826 C53.5315852,27.8388872 53.7239789,28.4815225 54.1087664,29.0046885 C54.4935538,29.5278545 55.1174702,29.7894375 55.9805157,29.7894375 C56.7999416,29.7894375 57.3927011,29.495059 57.7587944,28.906302 C58.1248877,28.317545 58.3079344,27.6405526 58.3079344,26.8753247 C58.3079344,26.0663695 58.0968465,25.4151449 57.6746709,24.921651 C57.2524952,24.428157 56.675314,24.1814101 55.9431275,24.1814101 Z M83.227204,24.5609007 L82.1195771,27.6015104 L84.2694015,27.6015104 L83.227204,24.5609007 Z M90.4431366,24.3407024 L88.1718003,24.3407024 L88.1718003,26.692607 L90.3216247,26.692607 C90.757821,26.692607 91.1028834,26.6051524 91.356812,26.4302431 C91.6107405,26.2553339 91.7377048,25.9398726 91.7377048,25.4838592 C91.7377048,24.9934887 91.5601106,24.6592871 91.2049222,24.4812545 C91.0148652,24.3875531 90.7609367,24.3407024 90.4431366,24.3407024 L90.4431366,24.3407024 Z" id="path-2"></path>
    </defs>
    <g id="切图" stroke="none" stroke-width="1" fill="none" fill-rule="evenodd">
        <g id="编组-3备份-5" transform="translate(0.000000, 0.000000)" fill-rule="nonzero">
            <g id="编组-3备份">
                <g id="形状结合" transform="translate(48.037679, 2.152536)">
                    <use fill="url(#linearGradient-1)" xlink:href="#path-2"></use>
                    <use fill="#010101" xlink:href="#path-2"></use>
                </g>
                <g id="Logo">
                    <path d="M28.2584435,3.54478708 C25.3127753,1.34801762 21.6182085,0 17.6740088,0 C13.7298091,0 10.0851689,1.29809104 7.13950073,3.4948605 L17.7239354,21.8179148 L28.2584435,3.54478708 Z" id="路径" fill="#F05C32"></path>
                    <path d="M14.1791483,15.7268722 L24.7136564,33.9500734 C31.0044053,31.2540382 35.3979442,24.9632893 35.3979442,17.7239354 C35.3979442,17.0249633 35.3480176,16.3759178 35.298091,15.7268722 L14.1791483,15.7268722 Z" id="路径" fill="#5251E5"></path>
                    <path d="M21.2187959,15.7268722 L0.0998531571,15.7268722 C0.0499265786,16.3759178 0,17.0748899 0,17.7239354 C0,25.0132159 4.39353891,31.2540382 10.6842878,34 L21.2187959,15.7268722 Z" id="路径" fill="#89BA3F"></path>
                    <polygon id="路径" fill="#FFFFFF" points="14.1791483 15.7268722 21.2187959 15.7268722 17.6740088 21.8179148"></polygon>
                </g>
            </g>
        </g>
    </g>
</svg>