<?xml version="1.0" encoding="UTF-8"?>
<svg width="24px" height="24px" viewBox="0 0 24 24" version="1.1" xmlns="http://www.w3.org/2000/svg" xmlns:xlink="http://www.w3.org/1999/xlink">
    <title>message</title>
    <defs>
        <linearGradient x1="50%" y1="0%" x2="50%" y2="100%" id="linearGradient-1">
            <stop stop-color="#F2F2F2" offset="0%"></stop>
            <stop stop-color="#95A2BD" offset="100%"></stop>
        </linearGradient>
        <path d="M12,1 C18.0751322,1 23,5.92486775 23,12 C23,14.0539249 22.4370728,15.9763712 21.4570856,17.6214715 C19.7079616,19.6995488 20.2222664,21.4923916 23,23 L23,23 L12,23 C5.92486775,23 1,18.0751322 1,12 C1,5.92486775 5.92486775,1 12,1 Z M6.23809524,10.1 C5.08092719,10.1 4.14285714,11.03807 4.14285714,12.1952381 C4.14285714,13.3524061 5.08092719,14.2904762 6.23809524,14.2904762 C7.39526329,14.2904762 8.33333333,13.3524061 8.33333333,12.1952381 C8.33333333,11.03807 7.39526329,10.1 6.23809524,10.1 Z M12,10.1 C10.842832,10.1 9.9047619,11.03807 9.9047619,12.1952381 C9.9047619,13.3524061 10.842832,14.2904762 12,14.2904762 C13.157168,14.2904762 14.0952381,13.3524061 14.0952381,12.1952381 C14.0952381,11.03807 13.157168,10.1 12,10.1 Z M17.7619048,10.1 C16.6047367,10.1 15.6666667,11.03807 15.6666667,12.1952381 C15.6666667,13.3524061 16.6047367,14.2904762 17.7619048,14.2904762 C18.9190728,14.2904762 19.8571429,13.3524061 19.8571429,12.1952381 C19.8571429,11.03807 18.9190728,10.1 17.7619048,10.1 Z" id="path-2"></path>
    </defs>
    <g id="UIkit" stroke="none" stroke-width="1" fill="none" fill-rule="evenodd">
        <g id="Combined-Shape备份">
            <use fill="url(#linearGradient-1)" xlink:href="#path-2"></use>
            <use fill="#555555" xlink:href="#path-2"></use>
        </g>
    </g>
</svg>