<?xml version="1.0" encoding="UTF-8"?>
<svg id="_图层_2" data-name="图层 2" xmlns="http://www.w3.org/2000/svg" xmlns:xlink="http://www.w3.org/1999/xlink" viewBox="0 0 401.53 165.06">
  <defs>
    <style>
      .cls-1 {
        fill: url(#_未命名的渐变_12);
      }

      .cls-1, .cls-2, .cls-3, .cls-4, .cls-5, .cls-6, .cls-7, .cls-8 {
        fill-rule: evenodd;
      }

      .cls-2 {
        fill: url(#_未命名的渐变_14);
      }

      .cls-3 {
        fill: url(#_未命名的渐变_12-2);
      }

      .cls-4 {
        fill: url(#_未命名的渐变_12-3);
      }

      .cls-5 {
        fill: url(#_未命名的渐变_14-3);
      }

      .cls-6 {
        fill: url(#_未命名的渐变_14-2);
      }

      .cls-7 {
        fill: #fff;
      }

      .cls-8 {
        fill: #0360e1;
      }
    </style>
    <linearGradient id="_未命名的渐变_14" data-name="未命名的渐变 14" x1="47.52" y1="45.75" x2="157.29" y2="141.82" gradientTransform="translate(0 168) scale(1 -1)" gradientUnits="userSpaceOnUse">
      <stop offset=".18" stop-color="#0057d8"/>
      <stop offset="1" stop-color="#55d4ff"/>
    </linearGradient>
    <linearGradient id="_未命名的渐变_12" data-name="未命名的渐变 12" x1="150.65" y1="105.16" x2="-26.72" y2="93.39" gradientTransform="translate(0 168) scale(1 -1)" gradientUnits="userSpaceOnUse">
      <stop offset="0" stop-color="#78d9b5"/>
      <stop offset="1" stop-color="#55d6f0"/>
    </linearGradient>
    <linearGradient id="_未命名的渐变_14-2" data-name="未命名的渐变 14" x1="-33.2" y1="73.21" x2="108.95" y2="104.21" xlink:href="#_未命名的渐变_14"/>
    <linearGradient id="_未命名的渐变_14-3" data-name="未命名的渐变 14" x1="7.72" y1="24.42" x2="110.7" y2="59.6" xlink:href="#_未命名的渐变_14"/>
    <linearGradient id="_未命名的渐变_12-2" data-name="未命名的渐变 12" x1="128.74" y1="65.04" x2="4.16" y2="45.05" xlink:href="#_未命名的渐变_12"/>
    <linearGradient id="_未命名的渐变_12-3" data-name="未命名的渐变 12" x1="148.55" y1="187.43" x2="82.4" y2="115.58" xlink:href="#_未命名的渐变_12"/>
  </defs>
  <g id="_" data-name=" ">
    <g>
      <path class="cls-2" d="m95.65,62.18c10.62-17.58,15.91-41.58,12.48-50.9-4.24-11.54,5-16.65,11.91-3.49,15.19,28.81,10.38,83.27,8.07,102.53-1.14,9.48-3.33,21.23-16.65,6.48-8.34-9.24-19-19.43-23.85-28.52-6.73-12.7,1.77-15.73,8.04-26.1Z"/>
      <path class="cls-1" d="m2.55,14.73s57.63-10.26,100.84,60.55c0,0,22.44,36.63,19.78,47.46,0,0-.06-9.91-11.4-26.4,0,0-45.2-77-111.38-69.94.22-3.97.95-7.89,2.16-11.67Z"/>
      <path class="cls-6" d="m.52,26.38c0,.11-7.13,35.88,31.55,73.23h0c24.08-7.72,61.74,5.92,61.74,5.92,23.83,7,28.43,13.26,29.15,16.23h.13c-.32-2.83-2-11.93-11.33-25.46.01.04-45.13-76.86-111.24-69.92Z"/>
      <path class="cls-5" d="m122.99,123.56s3.88-8.4-29.13-18c0,0-43.42-15.73-66.82-3.86,0,0-26.91,13.73-2.46,44,0,0,20.1,23.61,51.37,10,0,0,24-11.1,38.54-22-.04-.04,8.13-5.23,8.5-10.14Z"/>
      <path class="cls-3" d="m123.04,123.24s.47-10.51-35.53-13.94c0,0-40.4-6.89-61,4.34-5.68,3.08-9.8,8.41-11.36,14.68,0,0-6.04-20.52,16.93-28.71,24.08-7.72,61.74,5.92,61.74,5.92,21.54,6.28,27.37,12,28.82,15.28l.4,2.43Z"/>
      <path class="cls-4" d="m110.24.15s-5.88-.1-10.2,9.24c-.82,2-1.33,4.11-1.52,6.26-1.19,12-1.17,25.5-9.17,39.87,1.95,2.32,3.89,4.81,5.81,7.48.17-.26.33-.52.49-.79,10.62-17.58,15.91-41.58,12.48-50.9-2.21-6-.77-10.28,2.11-11.13v-.03Zm-22.15,65.72h0l1.27,1.35-1.27-1.35Zm2.74,2.94h0l-1.22-1.33,1.22,1.33Z"/>
      <path class="cls-8" d="m140.04,118.57l1.07-.29c4.08-1.13,8.06-2.59,11.9-4.37,7-3.26,16.42-9.07,21.53-18.19,0,0,.78-1,1.31-.54.22.22.27.54.14.82-.07.39-.32.72-.68.88-.32.13-.66.2-1,.22-2.38,3.92-5.5,7.34-9.19,10.06-3.68,2.85-7.68,5.26-11.91,7.2-3.81,1.76-7.75,3.22-11.79,4.35l-1.3.35c.41,1.45-.14,3.01-1.36,3.89-1.12.76-2.5,1.03-3.83.75-2.85,3.91-4.52,6-7.62,8.5-2.06,1.69-4.19,3.69-6.87,4.15-.11.09-1.13.92-2.73,2-1.11.87-2.43,1.43-3.82,1.64l-31.12,22.63c-1.35.81-2.75,1.52-4.21,2.11-.4.17-.81.28-1.24.33-.56.02-1.12-.08-1.63-.31-1.09-.43-1.74-1.53-1.6-2.69.38-1.05.96-2.03,1.7-2.87.5-.68,1.05-1.31,1.65-1.9l31.17-22.68c.35-1.28,1.09-2.42,2.11-3.27,1.46-1.33,2.32-2,2.32-2,.19-.28.36-.56.51-.86.3-.7.68-1.37,1.11-2,.19-.27.39-.55.61-.82l.19-.24c.52-.63,1.08-1.22,1.69-1.76.34-.31.7-.61,1.08-.9.15-.12.3-.24.46-.35,2.01-1.47,4.28-2.54,6.7-3.14,1.48-.37,3.01-.48,4.53-.31-.21-1.33.34-2.66,1.44-3.44,1.76-1.1,3.99-1.14,5.78-.08,1.88-2.76,3.6-5.63,5.15-8.59.41-.79.83-1.6,1.24-2.46,3.07-6.31,6.64-15.7,6.18-24.59-.18-1,.2-1.26.32-1.31.35-.11.65.21.75.35.28.32.36.76.21,1.16-.14.32-.38.59-.68.78.18,8.7-3.27,17.67-6.25,23.8-.64,1.32-1.29,2.55-1.91,3.7-1.39,2.55-2.9,5.03-4.54,7.43.41.25.78.55,1.12.89.4.4.74.87,1,1.38.08.14.15.29.21.44l.08.2.02-.05Zm-24.05,14.87c.77.81,1.9,1.19,3,1-1.1.17-2.22-.2-3-1Zm3.38,3c.38.03.77,0,1.14-.09-.38.05-.77.08-1.16.07l.02.02Z"/>
      <path class="cls-7" d="m210.44,115.62v-3.56c0-.25-.1-.49-.29-.65-.18-.16-.43-.23-.67-.2l-23.81,3.29c-.24.03-.49-.04-.67-.2-.19-.16-.3-.4-.3-.65v-5.65c0-.42.31-.78.73-.84l2-.29c.42-.06.72-.43.72-.85v-33.57c0-.47-.38-.85-.85-.85h-1.7c-.47,0-.85-.38-.86-.85v-5.75c0-.47.39-.85.86-.85h24.25c.47,0,.85-.38.85-.85h0v-4c0-.47-.39-.85-.86-.86h-21.92c-.47,0-.85-.38-.85-.85h0v-5.72c0-.47.38-.85.85-.85h26c2.04-.13,3.81,1.42,3.94,3.47.02.29,0,.58-.05.86,0,.05,0,.11,0,.16l.05,8.63v37.32c0,.25.1.48.29.64.19.16.44.24.68.2l1.39-.21c.24-.04.49.04.68.2.19.16.29.4.29.65v5.94c0,.42-.31.78-.73.84l-1.87.26c-.42.06-.73.42-.73.84v4.8c0,.47-.38.84-.85.85h-5.68c-.47,0-.85-.38-.86-.85h-.03Zm39.4-50.69h1.36c.47,0,.84-.38.85-.85v-5.76c0-.47-.38-.85-.85-.85h0c-6.78,0-13.71.07-20.4.07-.25,0-.49-.11-.65-.3-.17-.19-.23-.45-.18-.7l.81-4.52c.05-.25-.02-.51-.19-.7-.14-.19-.36-.31-.6-.32h-6c-.41,0-.76.3-.84.7-.5,2.8-1.16,6.68-1.44,8.58-.34,2.31,1,4.63,3.57,4.63h15.4c.26,0,.5.11.66.31.17.2.23.46.17.71-.42,2-.84,3.9-1.28,5.69-.79,3.24-1.7,6.47-2.74,9.64-.11.33-.4.57-.75.59-.34.03-.67-.16-.82-.47l-6.2-12.13c-.14-.29-.44-.48-.77-.47l-6.47.1c-.47,0-.85.39-.84.86,0,.13.03.27.09.38l11.26,21.93c.12.24.12.51,0,.75-3.11,6.72-10.38,19-14.73,23.51h0l-.09.11h9.07c.28,0,.54-.13.7-.36,2.46-3.51,6.05-9.52,7.68-12.34.33-.58.66-1.17,1-1.77.22-.41.74-.57,1.15-.35.15.08.27.2.35.35,2,3.88,5.26,10.15,7.22,14,.14.29.44.47.76.46h6.33c.47,0,.85-.39.84-.86,0-.13-.03-.27-.09-.38l-11.64-22.73c-.1-.22-.1-.48,0-.7.55-1.42,1.12-2.92,1.71-4.56,1.62-4.59,2.99-9.26,4.09-14,.59-2.46,1.16-5,1.69-7.6.08-.4.43-.68.84-.68l-.03.03Zm57.26,20.82h-5.75c-.47,0-.85.39-.85.86v12.11c0,.47.38.85.85.85h5.75c.47,0,.85-.38.85-.85h0v-12.11c0-.47-.38-.85-.85-.86Zm-110.68,5.73h13.17c.47,0,.85-.38.85-.85h0v-4.55c0-.47-.38-.85-.85-.85h-13.17c-.47,0-.85.38-.85.85h0v4.55c0,.47.38.85.85.85h0Zm0-13.7h13.17c.47,0,.85-.39.85-.86v-4.47c0-.47-.38-.85-.85-.85h-13.17c-.47,0-.85.38-.85.85h0v4.47c0,.47.38.85.85.86Zm.12,27.73l13.17-1.87c.42-.05.74-.41.73-.84v-3c0-.47-.38-.84-.85-.85h-13.17c-.47,0-.84.38-.85.85v4.89c0,.47.38.85.85.85.05,0,.1,0,.15-.01l-.03-.02Zm119.72,3.59c1.62-.04,2.93-1.33,3-2.95v-27.91c-.14-1.57-1.42-2.8-3-2.87h-20.8c-.36,0-.68.22-.8.55-5.74,15-13.67,27.47-23.39,40.25-.16.21-.41.33-.68.33h-7.2c-.47,0-.85-.37-.86-.84,0-.19.06-.38.18-.53,9.45-12.19,17.84-24.29,23.75-38.58.11-.26.08-.56-.08-.8-.16-.24-.42-.38-.71-.38h-21.56c-.47,0-.85-.38-.85-.85h0v-5.61c0-.47.38-.85.85-.85h24.88c.36,0,.69-.23.81-.57v-.12h0c1.46-4.61,3.26-10.29,4.32-15,.09-.39.43-.66.83-.66h5.78c.46,0,.84.37.85.83,0,.06,0,.11-.02.17-.61,2.85-2.09,7.83-2.71,10.13-.36,1.36-.76,2.74-1.17,4.13-.08.26-.03.54.13.76.16.22.41.34.68.34h17.74c5.61-.06,10.2,4.45,10.26,10.06,0,.04,0,.08,0,.12v27.91c.04,5.66-4.51,10.29-10.17,10.33-.03,0-.06,0-.09,0h-18.85c-.47,0-.85-.38-.85-.85h0v-5.64c0-.47.38-.85.85-.85h0l18.88-.05Zm-38.18-56.67c0-.47-.38-.85-.85-.85h-5.68c-.47,0-.85.38-.85.85h0v9.2c0,.47.38.85.85.86h5.68c.47,0,.85-.39.85-.86v-9.2Zm122.6,28.57h-41.94c-.39,0-.74.27-.83.65l-6.57,26.73c-.07.25-.01.52.15.73.16.21.41.33.67.33h38.57c1.59-.09,2.85-1.4,2.87-3v-10.75c0-.47.38-.85.85-.86h5.68c.47,0,.85.39.85.86v10.75c0,5.68-4.57,10.29-10.25,10.33h-44c-2.03-.02-3.67-1.68-3.65-3.71,0-.27.03-.54.1-.81h0l7.2-30.25c.08-.47-.24-.91-.71-.99-.04,0-.08-.01-.12-.01h-7.27c-.47,0-.85-.38-.86-.85v-5.8c0-.47.39-.85.86-.85h58.4c.47,0,.85.38.85.85h0v5.75c0,.47-.38.85-.85.85h0v.05Zm0-20h-58.4c-.47,0-.85-.38-.86-.85v-5.81c0-.47.39-.85.86-.86h58.4c.47,0,.85.39.85.86v5.75c0,.47-.38.85-.85.85h0v.06Z"/>
      <path class="cls-7" d="m193.3,147.69c-2.68.1-5.27-1-7.06-3-1.6-1.81-2.47-4.17-2.41-6.59-.07-2.33.75-4.59,2.3-6.33,1.86-1.96,4.48-3.01,7.17-2.87h10.59v3.27h-10.59c-1.72-.07-3.39.6-4.58,1.85-2.13,2.38-2.21,5.96-.18,8.43,1.2,1.35,2.95,2.09,4.76,2h8.69v-4.1h-8.91v-3h12.18v10.38l-11.96-.04Zm33.44-5.28h-8.92l2-3.27h5l-3.27-5.41-8.56,13.94h-4.21l10.2-17c.32-.53.76-.99,1.28-1.34.35-.27.77-.44,1.21-.49.46-.02.91.12,1.28.39.56.37,1.02.86,1.36,1.44l10,17h-4.22l-3.18-5.26h.03Zm26.25,4.34l-12.06-12.12v13.06h-3.27v-17.15c-.03-.44.12-.87.4-1.21.25-.29.62-.45,1-.44.73.06,1.4.42,1.85,1l12.08,12.05v-13.05h3.27v17.18c0,1.2-.41,1.81-1.23,1.81-.79-.11-1.5-.51-2-1.13h-.04Zm24.41-5.42l-2.69,4.83c-.67,1.18-1.33,1.79-2,1.85s-1.39-.57-2.1-1.86l-9.46-17.26h4.23l7.33,13.69,2.64-4.93-4.79-8.76h4.21l7.35,13.7,7.44-13.7h4.2l-9.68,17.26c-.66,1.18-1.31,1.8-2,1.86s-1.4-.57-2.1-1.86l-2.64-4.82h.06Zm35.33-4.81v3.27h-10.74v-3.27h10.74Zm-12.13,7.9v-12.26h13v-3.27h-16.3v18.8h16.24v-3.27h-12.94Zm18.87,3.27v-18.8h3.27v18.8h-3.27Zm20.65,0h-3.27v-6.27l-9.57-12.53h4.21l7.09,9.28,6.65-9.28h4.2l-9.31,12.58v6.22Zm24.7,0h-1.12c-3.17,0-5.56-.62-7.17-1.85-1.78-1.38-2.66-3.59-2.66-6.62v-10.33h3.27v10.33c0,2,.61,3.4,1.83,4.21,1.45.77,3.09,1.11,4.73,1h1.12c1.64.11,3.28-.23,4.74-1,1.22-.82,1.83-2.22,1.83-4.21v-10.33h3.27v10.33c0,3.03-.9,5.23-2.7,6.62-1.58,1.23-3.96,1.84-7.14,1.85h0Zm31-.94l-12.06-12.12v13.06h-3.27v-17.15c-.02-.44.12-.87.39-1.21.26-.28.62-.44,1-.44.73.06,1.4.42,1.86,1l12.06,12.08v-13.08h3.27v17.18c0,1.2-.41,1.81-1.23,1.81-.79-.11-1.51-.51-2.01-1.13h-.01Z"/>
    </g>
  </g>
</svg>