<?xml version="1.0" encoding="UTF-8"?>
<svg width="28px" height="28px" viewBox="0 0 28 28" version="1.1" xmlns="http://www.w3.org/2000/svg" xmlns:xlink="http://www.w3.org/1999/xlink">
    <title>安全</title>
    <g id="UIkit" stroke="none" stroke-width="1" fill="none" fill-rule="evenodd">
        <path d="M14.0232475,0.9 C13.3327344,0.9 12.6572628,1.13897809 12.1207907,1.57523389 C10.4174916,2.95123701 7.28211197,3.88346698 4.71103301,4.05993758 C3.19612603,4.16070995 2,5.39592445 2,6.89373494 L2,14.5390361 C2,19.1554403 8.88966278,26.9 13.8679449,26.9 C18.9040488,26.9 25.6,19.1962496 25.6,14.8224096 L25.6,6.93421687 C25.5951772,5.49300155 24.513711,4.31941876 23.0805332,4.12299934 L22.9069101,4.10416481 C20.1870981,3.88436564 18.1154078,2.97060057 15.6323873,1.37154633 C15.1554415,1.0627287 14.5978921,0.9 14.0232475,0.9 Z M14.0232475,2.9 C14.2144498,2.9 14.3941796,2.95245667 14.5474508,3.05169709 C17.2862575,4.81548013 19.6206308,5.84510741 22.7464108,6.09771431 C23.2471314,6.13787458 23.598544,6.50126996 23.6000056,6.93756695 L23.6000056,14.8224096 C23.6000056,18.149146 17.7322879,24.9 13.8679449,24.9 C10.0497287,24.9 4,18.0995968 4,14.5390361 L4,6.89373494 C4,6.46424523 4.36494088,6.08737837 4.84588396,6.05538509 C7.79120215,5.85323013 11.2988559,4.81031338 13.3801188,3.12896565 C13.5617698,2.98125489 13.7914368,2.9 14.0232475,2.9 Z" id="形状备份-5" fill="#555555" fill-rule="nonzero"></path>
        <path d="M13.9817087,19.2925153 C16.8927096,19.2925153 19.252542,16.950501 19.252542,14.0614799 C19.252542,11.1724588 16.8927096,8.83044454 13.9817087,8.83044454 C11.0707078,8.83044454 8.71087536,11.1724588 8.71087536,14.0614799 C8.71087536,16.950501 11.0707078,19.2925153 13.9817087,19.2925153 Z" id="椭圆形备份-9" stroke="#00DD00" stroke-width="0.5" fill="#00DB1C"></path>
        <polyline id="路径-3备份" stroke="#FFFFFF" stroke-width="1.37527797" points="11.7422169 14.1838259 13.4266902 15.8555804 16.6350235 12.6714719"></polyline>
    </g>
</svg>