<?xml version="1.0" encoding="UTF-8"?>
<svg width="30px" height="30px" viewBox="0 0 30 30" version="1.1" xmlns="http://www.w3.org/2000/svg" xmlns:xlink="http://www.w3.org/1999/xlink">
    <title>编组 110</title>
    <defs>
        <linearGradient x1="50%" y1="0%" x2="50%" y2="100%" id="linearGradient-1">
            <stop stop-color="#F2F2F2" offset="0%"></stop>
            <stop stop-color="#95A2BD" offset="100%"></stop>
        </linearGradient>
        <filter x="-116.2%" y="-117.1%" width="332.4%" height="334.2%" filterUnits="objectBoundingBox" id="filter-2">
            <feOffset dx="0" dy="0" in="SourceAlpha" result="shadowOffsetOuter1"></feOffset>
            <feGaussianBlur stdDeviation="3" in="shadowOffsetOuter1" result="shadowBlurOuter1"></feGaussianBlur>
            <feColorMatrix values="0 0 0 0 0   0 0 0 0 1   0 0 0 0 0.233877115  0 0 0 1 0" type="matrix" in="shadowBlurOuter1" result="shadowMatrixOuter1"></feColorMatrix>
            <feMerge>
                <feMergeNode in="shadowMatrixOuter1"></feMergeNode>
                <feMergeNode in="SourceGraphic"></feMergeNode>
            </feMerge>
        </filter>
    </defs>
    <g id="切图" stroke="none" stroke-width="1" fill="none" fill-rule="evenodd">
        <g id="UI-kit（4034✖️1850）" transform="translate(-2015.000000, -365.000000)">
            <g id="编组-110" transform="translate(2018.000000, 367.000000)">
                <path d="M12.0232475,0 C11.3327344,0 10.6572628,0.238978086 10.1207907,0.675233892 C8.41749156,2.05123701 5.28211197,2.98346698 2.71103301,3.15993758 C1.19612603,3.26070995 0,4.49592445 0,5.99373494 L0,13.6390361 C0,18.2554403 6.88966278,26 11.8679449,26 C16.9040488,26 23.6,18.2962496 23.6,13.9224096 L23.6,6.03421687 C23.5951772,4.59300155 22.513711,3.41941876 21.0805332,3.22299934 L20.9069101,3.20416481 C18.1870981,2.98436564 16.1154078,2.07060057 13.6323873,0.471546332 C13.1554415,0.162728699 12.5978921,0 12.0232475,0 Z M12.0232475,2 C12.2144498,2 12.3941796,2.05245667 12.5474508,2.15169709 C15.2862575,3.91548013 17.6206308,4.94510741 20.7464108,5.19771431 C21.2471314,5.23787458 21.598544,5.60126996 21.6000056,6.03756695 L21.6000056,13.9224096 C21.6000056,17.249146 15.7322879,24 11.8679449,24 C8.04972867,24 2,17.1995968 2,13.6390361 L2,5.99373494 C2,5.56424523 2.36494088,5.18737837 2.84588396,5.15538509 C5.79120215,4.95323013 9.29885589,3.91031338 11.3801188,2.22896565 C11.5617698,2.08125489 11.7914368,2 12.0232475,2 Z" id="形状" fill="url(#linearGradient-1)"></path>
                <g id="！备份-3" filter="url(#filter-2)" transform="translate(6.710875, 7.930445)">
                    <g id="编组-9" transform="translate(-0.000000, 0.000000)">
                        <path d="M5.27083333,10.4620707 C8.1818342,10.4620707 10.5416667,8.12005641 10.5416667,5.23103536 C10.5416667,2.3420143 8.1818342,0 5.27083333,0 C2.35983246,0 0,2.3420143 0,5.23103536 C0,8.12005641 2.35983246,10.4620707 5.27083333,10.4620707 Z" id="椭圆形" stroke="#00DD00" stroke-width="0.5" fill="#00DB1C"></path>
                        <polyline id="路径-3" stroke="#FFFFFF" stroke-width="1.37527797" points="3.03134152 5.35338134 4.71581479 7.02513582 7.92414812 3.84102734"></polyline>
                    </g>
                </g>
            </g>
        </g>
    </g>
</svg>