<?xml version="1.0" encoding="UTF-8"?>
<svg width="28px" height="28px" viewBox="0 0 28 28" version="1.1" xmlns="http://www.w3.org/2000/svg" xmlns:xlink="http://www.w3.org/1999/xlink">
    <title>皮肤</title>
    <defs>
        <linearGradient x1="50%" y1="0%" x2="50%" y2="100%" id="linearGradient-1">
            <stop stop-color="#F2F2F2" offset="0%"></stop>
            <stop stop-color="#95A2BD" offset="100%"></stop>
        </linearGradient>
        <path d="M21.1347716,3 L19.6226908,3 C19.2227574,3 18.8369161,3.17305081 18.5787491,3.48223116 C17.8042481,4.4069538 15.5886905,5.00558559 14.1930103,5.00558559 C12.7973302,5.00558559 10.5817725,4.4069538 9.80727152,3.48223116 C9.54628609,3.17276897 9.16326321,3 8.76332983,3 L7.24843065,3 C6.8797817,3 6.52776141,3.14740321 6.26677599,3.41430731 L1.24266571,8.52353378 C0.91911143,8.85244306 0.91911143,9.38315099 1.24266571,9.71206026 L4.30628507,12.8297932 C4.62983935,13.1589843 5.15181019,13.1589843 5.47508263,12.8297932 L5.57710933,12.7277665 C5.68787312,12.6170027 5.87501601,12.6936637 5.87501601,12.8526224 L5.87501601,23.7207205 C5.87501601,24.4270158 6.43672654,25 7.13174819,25 L21.2506085,25 C21.9456302,25 22.5073407,24.4270158 22.5073407,23.7207205 L22.5073407,12.849804 C22.5073407,12.6908453 22.6944836,12.6113659 22.8052474,12.7249481 L22.9072741,12.8272567 C23.2308284,13.1561659 23.7527992,13.1561659 24.0760716,12.8272567 L27.139691,9.70952369 C27.4632453,9.38061441 27.4632453,8.84990648 27.139691,8.52099721 L22.1164262,3.41148889 C21.8554408,3.14768505 21.500884,3 21.1347716,3 Z" id="path-2"></path>
    </defs>
    <g id="页面-绿" stroke="none" stroke-width="1" fill="none" fill-rule="evenodd">
        <g id="UI_kit" transform="translate(-2212.000000, -253.000000)">
            <g id="皮肤" transform="translate(2212.000000, 253.000000)">
                <rect id="矩形备份-14" x="0" y="0" width="28" height="28"></rect>
                <g id="路径">
                    <use fill="url(#linearGradient-1)" xlink:href="#path-2"></use>
                    <use fill="#F8FEFF" xlink:href="#path-2"></use>
                </g>
            </g>
        </g>
    </g>
</svg>