<?xml version="1.0" encoding="UTF-8"?>
<svg width="28px" height="28px" viewBox="0 0 28 28" version="1.1" xmlns="http://www.w3.org/2000/svg" xmlns:xlink="http://www.w3.org/1999/xlink">
    <title>编组 104</title>
    <g id="切图" stroke="none" stroke-width="1" fill="none" fill-rule="evenodd">
        <g id="UI_kit（4034✖️1850）" transform="translate(-2112.000000, -287.000000)">
            <g id="编组-106" transform="translate(2112.000000, 287.000000)">
                <path d="M8.001,1 L6.001,3 L3,3 L3,6.001 L1,8.001 L1,1 L8.001,1 Z" id="Combined-Shape" fill="#555555" fill-rule="nonzero"></path>
                <path d="M27.001,1 L25.001,3 L22,3 L22,6.001 L20,8.001 L20,1 L27.001,1 Z" id="Combined-Shape" fill="#555555" fill-rule="nonzero" transform="translate(23.500277, 4.500277) scale(-1, 1) translate(-23.500277, -4.500277) "></path>
                <path d="M8.001,20 L6.001,22 L3,22 L3,25.001 L1,27.001 L1,20 L8.001,20 Z" id="Combined-Shape" fill="#555555" fill-rule="nonzero" transform="translate(4.500277, 23.500277) scale(1, -1) translate(-4.500277, -23.500277) "></path>
                <path d="M27.001,20 L25.001,22 L22,22 L22,25.001 L20,27.001 L20,20 L27.001,20 Z" id="Combined-Shape" fill="#555555" fill-rule="nonzero" transform="translate(23.500277, 23.500277) scale(-1, -1) translate(-23.500277, -23.500277) "></path>
                <path d="M23.75,4.25 L4.25,4.25 L4.25,23.75 L23.75,23.75 L23.75,4.25 Z M22.25,5.75 L22.25,22.25 L5.75,22.25 L5.75,5.75 L22.25,5.75 Z" id="矩形备份-97" fill="#555555" fill-rule="nonzero"></path>
                <polygon id="矩形备份-93" opacity="0.438476562" points="0 0 28 0 28 28 0 28"></polygon>
            </g>
        </g>
    </g>
</svg>