<?xml version="1.0" encoding="UTF-8"?>
<svg width="28px" height="28px" viewBox="0 0 28 28" version="1.1" xmlns="http://www.w3.org/2000/svg" xmlns:xlink="http://www.w3.org/1999/xlink">
    <title>首页_皮肤</title>
    <g id="切图" stroke="none" stroke-width="1" fill="none" fill-rule="evenodd">
        <g id="Group-5备份-3" transform="translate(-8.000000, -8.000000)" fill="#FFFFFF" fill-opacity="0">
            <g id="Group-4">
                <polygon id="Rectangle-3-Copy-2" points="0 0 44 0 44 44 0 44"></polygon>
            </g>
        </g>
        <g id="编组-2备份-9" transform="translate(-88.000000, 0.000000)"></g>
        <g id="pifu备份-2" transform="translate(1.000000, 3.000000)" fill="#555555">
            <path d="M20.1347716,0 L18.6226908,0 C18.2227574,0 17.8369161,0.173050808 17.5787491,0.482231161 C16.8042481,1.4069538 14.5886905,2.00558559 13.1930103,2.00558559 C11.7973302,2.00558559 9.58177253,1.4069538 8.80727152,0.482231161 C8.54628609,0.172768967 8.16326321,0 7.76332983,0 L6.24843065,0 C5.8797817,0 5.52776141,0.147403213 5.26677599,0.41430731 L0.24266571,5.52353378 C-0.08088857,5.85244306 -0.08088857,6.38315099 0.24266571,6.71206026 L3.30628507,9.82979323 C3.62983935,10.1589843 4.15181019,10.1589843 4.47508263,9.82979323 L4.57710933,9.72776653 C4.68787312,9.61700274 4.87501601,9.69366369 4.87501601,9.85262241 L4.87501601,20.7207205 C4.87501601,21.4270158 5.43672654,22 6.13174819,22 L20.2506085,22 C20.9456302,22 21.5073407,21.4270158 21.5073407,20.7207205 L21.5073407,9.84980399 C21.5073407,9.69084527 21.6944836,9.61136591 21.8052474,9.72494812 L21.9072741,9.82725666 C22.2308284,10.1561659 22.7527992,10.1561659 23.0760716,9.82725666 L26.139691,6.70952369 C26.4632453,6.38061441 26.4632453,5.84990648 26.139691,5.52099721 L21.1164262,0.411488893 C20.8554408,0.147685055 20.500884,0 20.1347716,0 Z" id="路径"></path>
        </g>
    </g>
</svg>