<?xml version="1.0" encoding="UTF-8"?>
<svg width="28px" height="28px" viewBox="0 0 28 28" version="1.1" xmlns="http://www.w3.org/2000/svg" xmlns:xlink="http://www.w3.org/1999/xlink">
    <title>编组 104</title>
    <defs>
        <circle id="path-1" cx="14" cy="14" r="14"></circle>
        <linearGradient x1="74.9384046%" y1="100%" x2="74.9384046%" y2="0%" id="linearGradient-3">
            <stop stop-color="#019DA3" offset="0%"></stop>
            <stop stop-color="#009CA2" offset="100%"></stop>
        </linearGradient>
        <path d="M14.2529936,6.22222222 C14.6671189,6.22222222 15.0727499,6.27292278 15.4530837,6.37432389 C15.833444,6.47575154 16.1883745,6.60255602 16.5222549,6.76307238 C16.8517819,6.92369493 17.1518708,7.09695279 17.4053736,7.29126068 C17.6673973,7.48570129 17.874367,7.68425634 18.0349896,7.88719129 C18.3941672,8.34777 18.6646055,8.85482864 18.8463577,9.4084203 C19.0280303,9.96203851 19.1548613,10.4817325 19.2224443,10.9718821 C19.3112101,11.5466299 19.344922,12.1255453 19.3322602,12.700187 C19.4336613,12.7551347 19.5140389,12.8439005 19.5688804,12.9622107 C19.6238547,13.0636118 19.6745553,13.1904428 19.7083468,13.3509592 C19.7421648,13.5115552 19.746412,13.7017486 19.7168411,13.9340952 C19.6745553,14.2384312 19.6026985,14.4750515 19.5140389,14.6567241 C19.4167788,14.8385028 19.3153511,14.977863 19.2013147,15.0792641 C19.0703427,15.1976804 18.9351235,15.2736782 18.79141,15.3158844 C18.7364623,15.5441165 18.6688527,15.7723221 18.5969959,15.983539 C18.5252453,16.1695649 18.4406205,16.3554847 18.3519609,16.5330163 C18.2547008,16.7146623 18.1532997,16.8541286 18.0392367,16.9555563 C17.9081851,17.0738664 17.7899811,17.1667732 17.6715648,17.2471243 C17.5532547,17.323122 17.4560742,17.4076407 17.3673349,17.4921327 C17.2785691,17.5808985 17.2067124,17.6823262 17.1518708,17.8048835 C17.0968966,17.9274408 17.0504432,18.0752953 17.0207926,18.2485797 C16.9785864,18.46415 16.9659511,18.6838612 16.9785864,18.9078462 C16.9912483,19.1275574 17.0504432,19.3556834 17.1518708,19.5753946 C17.2532719,19.7952121 17.4180355,20.0106762 17.6505148,20.2135049 C17.8786142,20.4164399 18.1913649,20.5938387 18.5800869,20.7544613 C18.9392645,20.8980686 19.3365073,21.0248731 19.7590473,21.1305479 C20.1858345,21.2403637 21.897257,21.9756279 22.2902526,22.1278358 C22.6832218,22.279964 23.0382584,22.4701309 23.346762,22.6982303 C23.6467181,22.9517596 23.8664559,23.2518485 23.9975076,23.6279351 L24.0377684,23.7592749 C21.4941188,26.3750519 17.9368229,28 14,28 C10.1129086,28 6.59581599,26.4158465 4.05911267,23.8579298 L4.02679782,24.0209308 C4.11556361,23.4884688 4.33102769,23.0828378 4.6733228,22.8123995 C5.01983853,22.5376343 5.42974323,22.3221702 5.89459565,22.1657948 C6.36358906,22.0052785 8.53559022,21.2572462 9.03423416,21.1263007 C9.5328781,20.9953287 9.96818616,20.809409 10.3399991,20.5642944 C10.644229,20.3783746 10.8766021,20.1965959 11.0414718,20.0234442 C11.2062353,19.8501863 11.3245455,19.6769019 11.3879079,19.5036441 C11.4513765,19.3303597 11.485168,19.1528546 11.485168,18.9627939 C11.485168,18.776768 11.4766737,18.5739392 11.4640118,18.354228 C11.4344675,18.0076857 11.3245455,17.7415211 11.1302376,17.5556013 C10.9358235,17.3695754 10.7203329,17.1752675 10.4709711,16.9724388 C10.3526609,16.8710377 10.255507,16.7315713 10.1667412,16.5497926 C10.0779754,16.3681465 10.0019777,16.186474 9.93012093,16.0005543 C9.85826418,15.784984 9.78640742,15.560999 9.71455066,15.3328996 C9.61314955,15.3032491 9.5117219,15.2567957 9.41032079,15.1807714 C9.321555,15.1089146 9.22864822,15.0075135 9.12724711,14.8764353 C9.025846,14.7454899 8.94132738,14.5595702 8.86522346,14.3144555 C8.79336671,14.0735615 8.76806952,13.8496031 8.79336671,13.6552952 C8.81452291,13.4608546 8.85256159,13.2918439 8.91167685,13.1481304 C8.96662457,12.987614 9.05539036,12.8396534 9.1737005,12.6917989 C9.16103864,12.146675 9.18633582,11.5973305 9.26246629,11.047986 C9.31741401,10.5873807 9.42295611,10.0971515 9.57508432,9.577431 C9.72729217,9.05773704 9.94702996,8.58863745 10.2343508,8.17451213 C10.5090363,7.78576363 10.8132397,7.46454509 11.1512876,7.21101577 C11.4894152,6.95748645 11.8317103,6.7589314 12.1781198,6.61521789 C12.5246621,6.47150438 12.8712044,6.37432389 13.2261348,6.31098801 C13.5769243,6.25601374 13.9191928,6.22222222 14.2529936,6.22222222 Z M14.9332836,21.0756002 L13.8557508,21.0756002 C13.7121169,21.1770013 13.5895596,21.2784024 13.4881585,21.3798301 C13.3993927,21.4685693 13.3233949,21.5657232 13.2515382,21.6840334 C13.1796814,21.8023435 13.1416162,21.9122655 13.1416162,22.0305757 C13.1416162,22.1193415 13.1923168,22.2334044 13.3022387,22.3771179 C13.4120545,22.5208314 13.5431062,22.6601916 13.6994816,22.7869961 C13.6390391,22.9735529 13.5812776,23.160906 13.5262237,23.3490025 C13.4543669,23.5898699 13.3867574,23.8476464 13.3233949,24.1180847 C13.2599263,24.3843556 13.2008376,24.6378849 13.1501371,24.8745052 C13.0993303,25.1111255 13.0782803,25.2843833 13.0782803,25.4026935 C13.0782803,25.4745502 13.1289809,25.5759779 13.2387701,25.7069233 C13.3486921,25.8380015 13.475417,25.968947 13.6276248,26.095778 C13.7797265,26.2267235 13.9276075,26.3366455 14.071321,26.4295523 C14.2191755,26.5140443 14.3290975,26.5647714 14.3967071,26.5647714 C14.4685639,26.5647714 14.5783531,26.518318 14.7304813,26.4253051 C14.882583,26.3281511 15.0305437,26.2224763 15.1741776,26.0915309 C15.3178911,25.9605588 15.4445894,25.8294807 15.5502642,25.7027824 C15.6601596,25.5717042 15.7108602,25.4745502 15.7108602,25.3984463 C15.7108602,25.3097867 15.689704,25.161826 15.6475243,24.9421148 C15.6052119,24.7266507 15.5502642,24.4857567 15.4952899,24.2322539 C15.4404484,23.9702037 15.377086,23.7167009 15.3221382,23.4630654 C15.2671905,23.2095361 15.2122162,23.0067339 15.17001,22.8462175 C15.3136439,22.7278012 15.4362012,22.6053235 15.5376023,22.4701309 C15.6390034,22.3306645 15.689704,22.1911982 15.689704,22.0474847 C15.689704,21.9291746 15.6516653,21.8151116 15.5713938,21.6925543 C15.4952899,21.569997 15.4023831,21.4685693 15.300982,21.3798301 C15.1826719,21.2784024 15.0643617,21.1770013 14.9332836,21.0756002 Z" id="path-4"></path>
    </defs>
    <g id="页面-绿" stroke="none" stroke-width="1" fill="none" fill-rule="evenodd">
        <g id="编组-104">
            <g id="头像">
                <mask id="mask-2" fill="white">
                    <use xlink:href="#path-1"></use>
                </mask>
                <use id="Mask备份" fill="#F8FEFF" xlink:href="#path-1"></use>
                <mask id="mask-5" fill="white">
                    <use xlink:href="#path-4"></use>
                </mask>
                <use id="形状结合" fill="url(#linearGradient-3)" xlink:href="#path-4"></use>
            </g>
            <g id="头像备份-4" transform="translate(4.026798, 6.222222)"></g>
        </g>
    </g>
</svg>