<?xml version="1.0" encoding="UTF-8"?>
<svg width="28px" height="28px" viewBox="0 0 28 28" version="1.1" xmlns="http://www.w3.org/2000/svg" xmlns:xlink="http://www.w3.org/1999/xlink">
    <title>中等安全</title>
    <defs>
        <path d="M15.2844879,8.73041794 L18.7849697,15.8841531 C19.1479393,16.6259334 18.8536943,17.5279312 18.127755,17.8988214 C17.9236963,18.0030772 17.6986849,18.0573543 17.4705403,18.0573543 L10.4695767,18.0573543 C9.65795191,18.0573543 9,17.3850448 9,16.5557092 C9,16.3225861 9.05311799,16.0926646 9.15514734,15.8841531 L12.6556291,8.73041794 C13.0185988,7.98863755 13.9013339,7.68797164 14.6272732,8.05886184 C14.9116766,8.20416657 15.1422862,8.43980846 15.2844879,8.73041794 Z" id="path-1"></path>
    </defs>
    <g id="UIkit" stroke="none" stroke-width="1" fill="none" fill-rule="evenodd">
        <path d="M14.0232475,1 C13.3556695,1 12.7024881,1.23109193 12.1838824,1.65281894 C10.4615598,3.04419083 7.30756648,3.98195513 4.71788057,4.15970285 C3.25456678,4.25704337 2.1,5.44934049 2.1,6.89373494 L2.1,14.5390361 C2.1,19.1026482 8.94766607,26.8 13.8679449,26.8 C18.8454607,26.8 25.5,19.1438944 25.5,14.8224096 L25.5,6.93421687 C25.4951623,5.48864878 24.3665541,4.32155606 22.8989153,4.20384471 C20.1587747,3.98240273 18.0739503,3.06284455 15.5782439,1.45562061 C15.1173784,1.1572151 14.57872,1 14.0232475,1 Z M14.0232475,2.8 C14.2336219,2.8 14.4322427,2.85797027 14.601801,2.9677563 C17.327715,4.72323615 19.6489542,5.74707032 22.754466,5.99803926 C23.3060484,6.04227887 23.698366,6.4479741 23.7000051,6.93723194 L23.7000051,14.8224096 C23.7000051,18.2015011 17.790876,25 13.8679449,25 C9.99172538,25 3.9,18.152389 3.9,14.5390361 L3.9,6.89373494 C3.9,6.41082919 4.30650014,5.99104495 4.83924643,5.95560562 C7.76574765,5.75474198 11.2547877,4.71735956 13.3172777,3.05117752 C13.5165444,2.88914105 13.7685017,2.8 14.0232475,2.8 Z" id="形状备份-6" fill="#555555" fill-rule="nonzero"></path>
        <mask id="mask-2" fill="white">
            <use xlink:href="#path-1"></use>
        </mask>
        <use id="蒙版备份" fill="#FFB600" xlink:href="#path-1"></use>
        <path d="M14.6497377,14.1374356 L14.6497377,11.0834628 L13.3807583,11.0834628 L13.3807583,14.1374356 L14.6497377,14.1374356 Z M14.0192893,16.4004147 C14.4395883,16.4004147 14.7952258,16.0452757 14.7952258,15.6075461 C14.7952258,15.1698166 14.4395883,14.8064185 14.0192893,14.8064185 C13.5909077,14.8064185 13.2352702,15.1698166 13.2352702,15.6075461 C13.2352702,16.0452757 13.5909077,16.4004147 14.0192893,16.4004147 Z" id="！备份-4" fill="#FFFFFF" fill-rule="nonzero" mask="url(#mask-2)"></path>
    </g>
</svg>