<?xml version="1.0" encoding="UTF-8"?>
<svg width="28px" height="28px" viewBox="0 0 28 28" version="1.1" xmlns="http://www.w3.org/2000/svg" xmlns:xlink="http://www.w3.org/1999/xlink">
    <title>编组 126</title>
    <g id="切图" stroke="none" stroke-width="1" fill="none" fill-rule="evenodd">
        <g id="UI_kit（4034✖️1850）" transform="translate(-2068.000000, -287.000000)">
            <g id="编组-107" transform="translate(2068.000000, 287.000000)">
                <path d="M10.5355339,16.0502525 L11.9497475,17.4644661 L4.41255444,25 L7.01114809,25.0005544 L9.00055444,27.0005544 L1.00055444,27.0005544 L1.00055444,19 L3,21.0112554 L2.99955444,23.585 L10.5355339,16.0502525 Z M27.0005544,19 L27.0005544,27.0005544 L19.0005544,27.0005544 L20.9899608,25.0005544 L25.0011089,25.0005544 L25.0011089,21.0112554 L27.0005544,19 Z M27.0005544,1 L27.0005544,9.00055444 L25.0011089,6.98929903 L25.0005544,4.413 L17.4644661,11.9497475 L16.0502525,10.5355339 L23.5845544,3 L20.9899608,3 L19.0005544,1 L27.0005544,1 Z M9.00055444,1 L7.01114809,3 L3,3 L3,6.98929903 L1.00055444,9.00055444 L1.00055444,1 L9.00055444,1 Z" id="形状结合备份-5" fill="#555555"></path>
                <polygon id="矩形备份-94" opacity="0.438476562" points="0 0 28 0 28 28 0 28"></polygon>
            </g>
        </g>
    </g>
</svg>