<?xml version="1.0" encoding="UTF-8"?>
<svg width="28px" height="28px" viewBox="0 0 28 28" version="1.1" xmlns="http://www.w3.org/2000/svg" xmlns:xlink="http://www.w3.org/1999/xlink">
    <title>低等安全</title>
    <defs>
        <radialGradient cx="50%" cy="21.0471611%" fx="50%" fy="21.0471611%" r="57.0035733%" gradientTransform="translate(0.500000,0.210472),scale(0.992449,1.000000),rotate(90.000000),translate(-0.500000,-0.210472)" id="radialGradient-1">
            <stop stop-color="#FFB4B4" offset="0%"></stop>
            <stop stop-color="#FF4242" offset="100%"></stop>
        </radialGradient>
        <path d="M13.9262243,8.47928134 C16.4115056,8.47928134 18.4262243,10.494 18.4262243,12.9792813 L18.4262243,17.4113259 L18.4262243,17.4113259 L9.42622427,17.4113259 L9.42622427,12.9792813 C9.42622427,10.494 11.4409429,8.47928134 13.9262243,8.47928134 Z" id="path-2"></path>
        <filter x="-22.2%" y="-22.4%" width="144.4%" height="144.8%" filterUnits="objectBoundingBox" id="filter-3">
            <feGaussianBlur stdDeviation="1.5" in="SourceAlpha" result="shadowBlurInner1"></feGaussianBlur>
            <feOffset dx="0" dy="-1" in="shadowBlurInner1" result="shadowOffsetInner1"></feOffset>
            <feComposite in="shadowOffsetInner1" in2="SourceAlpha" operator="arithmetic" k2="-1" k3="1" result="shadowInnerInner1"></feComposite>
            <feColorMatrix values="0 0 0 0 0.506293255   0 0 0 0 0   0 0 0 0 0  0 0 0 0.5 0" type="matrix" in="shadowInnerInner1"></feColorMatrix>
        </filter>
    </defs>
    <g id="UIkit" stroke="none" stroke-width="1" fill="none" fill-rule="evenodd">
        <path d="M14.0232475,0.9 C13.3327344,0.9 12.6572628,1.13897809 12.1207907,1.57523389 C10.4174916,2.95123701 7.28211197,3.88346698 4.71103301,4.05993758 C3.19612603,4.16070995 2,5.39592445 2,6.89373494 L2,14.5390361 C2,19.1554403 8.88966278,26.9 13.8679449,26.9 C18.9040488,26.9 25.6,19.1962496 25.6,14.8224096 L25.6,6.93421687 C25.5951772,5.49300155 24.513711,4.31941876 23.0805332,4.12299934 L22.9069101,4.10416481 C20.1870981,3.88436564 18.1154078,2.97060057 15.6323873,1.37154633 C15.1554415,1.0627287 14.5978921,0.9 14.0232475,0.9 Z M14.0232475,2.9 C14.2144498,2.9 14.3941796,2.95245667 14.5474508,3.05169709 C17.2862575,4.81548013 19.6206308,5.84510741 22.7464108,6.09771431 C23.2471314,6.13787458 23.598544,6.50126996 23.6000056,6.93756695 L23.6000056,14.8224096 C23.6000056,18.149146 17.7322879,24.9 13.8679449,24.9 C10.0497287,24.9 4,18.0995968 4,14.5390361 L4,6.89373494 C4,6.46424523 4.36494088,6.08737837 4.84588396,6.05538509 C7.79120215,5.85323013 11.2988559,4.81031338 13.3801188,3.12896565 C13.5617698,2.98125489 13.7914368,2.9 14.0232475,2.9 Z" id="形状备份-4" fill="#555555" fill-rule="nonzero"></path>
        <g id="矩形备份-14">
            <use fill="url(#radialGradient-1)" fill-rule="evenodd" xlink:href="#path-2"></use>
            <use fill="black" fill-opacity="1" filter="url(#filter-3)" xlink:href="#path-2"></use>
        </g>
        <path d="M9.11386325,17.4113259 L18.7385853,17.4113259 C19.1183578,17.4113259 19.4262243,17.7191924 19.4262243,18.0989649 L19.4262243,18.212361 C19.4262243,18.5921335 19.1183578,18.9 18.7385853,18.9 L9.11386325,18.9 C8.73409073,18.9 8.42622427,18.5921335 8.42622427,18.212361 L8.42622427,18.0989649 C8.42622427,17.7191924 8.73409073,17.4113259 9.11386325,17.4113259 Z" id="矩形备份-18" fill="#F75B5B" transform="translate(13.926224, 18.155663) scale(1, -1) translate(-13.926224, -18.155663) "></path>
        <path d="M14.5895745,13.7950824 L14.5895745,10.9597005 L13.2052333,10.9597005 L13.2052333,13.7950824 L14.5895745,13.7950824 Z M13.9018126,16.2637869 C14.3603206,16.2637869 14.7482888,15.8763625 14.7482888,15.3988394 C14.7482888,14.9213162 14.3603206,14.5248819 13.9018126,14.5248819 C13.4344872,14.5248819 13.046519,14.9213162 13.046519,15.3988394 C13.046519,15.8763625 13.4344872,16.2637869 13.9018126,16.2637869 Z" id="！备份" fill="#FFFFFF" fill-rule="nonzero"></path>
    </g>
</svg>