<?xml version="1.0" encoding="UTF-8"?>
<svg width="28px" height="28px" viewBox="0 0 28 28" version="1.1" xmlns="http://www.w3.org/2000/svg" xmlns:xlink="http://www.w3.org/1999/xlink">
    <title>全屏缩小</title>
    <g id="页面-绿" stroke="none" stroke-width="1" fill="none" fill-rule="evenodd">
        <g id="UI_kit" transform="translate(-2168.000000, -306.000000)">
            <g id="全屏缩小" transform="translate(2168.000000, 306.000000)">
                <rect id="矩形备份-14" x="0" y="0" width="28" height="28"></rect>
                <g transform="translate(1.000554, 1.000000)" fill="#F8FEFF" id="编组-107">
                    <path d="M9.53497947,15.0502525 L10.949193,16.4644661 L3.412,24 L6.01059365,24.0005544 L8,26.0005544 L0,26.0005544 L0,18 L1.99944556,20.0112554 L1.999,22.585 L9.53497947,15.0502525 Z M26,18 L26,26.0005544 L18,26.0005544 L19.9894064,24.0005544 L24.0005544,24.0005544 L24.0005544,20.0112554 L26,18 Z M26,0 L26,8.00055444 L24.0005544,5.98929903 L24,3.413 L16.4639117,10.9497475 L15.0496981,9.53553391 L22.584,2 L19.9894064,2 L18,0 L26,0 Z M8,0 L6.01059365,2 L1.99944556,2 L1.99944556,5.98929903 L0,8.00055444 L0,0 L8,0 Z" id="形状结合备份-5"></path>
                </g>
            </g>
        </g>
    </g>
</svg>