<?xml version="1.0" encoding="UTF-8"?>
<svg width="28px" height="29px" viewBox="0 0 28 29" version="1.1" xmlns="http://www.w3.org/2000/svg" xmlns:xlink="http://www.w3.org/1999/xlink">
    <title>编组 109</title>
    <defs>
        <linearGradient x1="50%" y1="0%" x2="50%" y2="100%" id="linearGradient-1">
            <stop stop-color="#E8E9EC" offset="0%"></stop>
            <stop stop-color="#98A4BF" offset="100%"></stop>
        </linearGradient>
        <filter x="-120.7%" y="-118.1%" width="341.4%" height="336.3%" filterUnits="objectBoundingBox" id="filter-2">
            <feOffset dx="0" dy="0" in="SourceAlpha" result="shadowOffsetOuter1"></feOffset>
            <feGaussianBlur stdDeviation="3" in="shadowOffsetOuter1" result="shadowBlurOuter1"></feGaussianBlur>
            <feColorMatrix values="0 0 0 0 1   0 0 0 0 0.902996783   0 0 0 0 0  0 0 0 1 0" type="matrix" in="shadowBlurOuter1" result="shadowMatrixOuter1"></feColorMatrix>
            <feMerge>
                <feMergeNode in="shadowMatrixOuter1"></feMergeNode>
                <feMergeNode in="SourceGraphic"></feMergeNode>
            </feMerge>
        </filter>
        <path d="M6.28448789,0.830417935 L9.78496969,7.98415306 C10.1479393,8.72593345 9.8536943,9.62793117 9.127755,9.99882136 C8.92369629,10.1030772 8.69868489,10.1573543 8.47054031,10.1573543 L1.46957672,10.1573543 C0.657951909,10.1573543 0,9.48504485 0,8.65570916 C0,8.42258613 0.0531179854,8.19266464 0.155147342,7.98415306 L3.65562914,0.830417935 C4.01859879,0.0886375501 4.90133391,-0.212028357 5.62727321,0.158861835 C5.91167657,0.304166572 6.14228621,0.539808462 6.28448789,0.830417935 Z" id="path-3"></path>
    </defs>
    <g id="切图" stroke="none" stroke-width="1" fill="none" fill-rule="evenodd">
        <g id="UI-kit（4034✖️1850）" transform="translate(-2016.000000, -301.000000)">
            <g id="编组-109" transform="translate(2018.100000, 303.100000)">
                <path d="M11.9232475,0 C11.2556695,0 10.6024881,0.231091927 10.0838824,0.652818937 C8.36155978,2.04419083 5.20756648,2.98195513 2.61788057,3.15970285 C1.15456678,3.25704337 0,4.44934049 0,5.89373494 L0,13.5390361 C0,18.1026482 6.84766607,25.8 11.7679449,25.8 C16.7454607,25.8 23.4,18.1438944 23.4,13.8224096 L23.4,5.93421687 C23.3951623,4.48864878 22.2665541,3.32155606 20.7989153,3.20384471 C18.0587747,2.98240273 15.9739503,2.06284455 13.4782439,0.455620615 C13.0173784,0.157215098 12.47872,0 11.9232475,0 Z M11.9232475,1.8 C12.1336219,1.8 12.3322427,1.85797027 12.501801,1.9677563 C15.227715,3.72323615 17.5489542,4.74707032 20.654466,4.99803926 C21.2060484,5.04227887 21.598366,5.4479741 21.6000051,5.93723194 L21.6000051,13.8224096 C21.6000051,17.2015011 15.690876,24 11.7679449,24 C7.89172538,24 1.8,17.152389 1.8,13.5390361 L1.8,5.89373494 C1.8,5.41082919 2.20650014,4.99104495 2.73924643,4.95560562 C5.66574765,4.75474198 9.15478767,3.71735956 11.2172777,2.05117752 C11.4165444,1.88914105 11.6685017,1.8 11.9232475,1.8 Z" id="形状" fill="url(#linearGradient-1)" fill-rule="nonzero"></path>
                <g id="anquandengji" transform="translate(0.900000, 0.900000)"></g>
                <g id="！备份-2" filter="url(#filter-2)" transform="translate(6.900000, 6.900000)">
                    <g id="编组-9">
                        <mask id="mask-4" fill="white">
                            <use xlink:href="#path-3"></use>
                        </mask>
                        <use id="蒙版" fill="#FFB600" xlink:href="#path-3"></use>
                        <path d="M5.64973775,6.23743557 L5.64973775,3.18346281 L4.38075825,3.18346281 L4.38075825,6.23743557 L5.64973775,6.23743557 Z M5.01928934,8.50041472 C5.43958828,8.50041472 5.79522584,8.14527565 5.79522584,7.70754611 C5.79522584,7.26981657 5.43958828,6.90641846 5.01928934,6.90641846 C4.59090772,6.90641846 4.23527016,7.26981657 4.23527016,7.70754611 C4.23527016,8.14527565 4.59090772,8.50041472 5.01928934,8.50041472 Z" id="！" fill="#FFFFFF" fill-rule="nonzero" mask="url(#mask-4)"></path>
                    </g>
                </g>
            </g>
        </g>
    </g>
</svg>