<?xml version="1.0" encoding="UTF-8"?>
<svg width="28px" height="28px" viewBox="0 0 28 28" version="1.1" xmlns="http://www.w3.org/2000/svg" xmlns:xlink="http://www.w3.org/1999/xlink">
    <title>编组 127</title>
    <defs>
        <linearGradient x1="50%" y1="0%" x2="50%" y2="100%" id="linearGradient-1">
            <stop stop-color="#F2F2F2" offset="0%"></stop>
            <stop stop-color="#95A2BD" offset="100%"></stop>
        </linearGradient>
    </defs>
    <g id="切图" stroke="none" stroke-width="1" fill="none" fill-rule="evenodd">
        <g id="UI_kit（4034✖️1850）" transform="translate(-2017.000000, -338.000000)">
            <g id="编组-127" transform="translate(2017.000000, 338.000000)">
                <path d="M27.0005544,19 L27.0005544,27.0005544 L19.0005544,27.0005544 L20.9899608,25.0005544 L25.0011089,25.0005544 L25.0011089,21.0112554 L27.0005544,19 Z M12.0005544,16 L12.0005544,24.0005544 L10.0011089,21.989299 L10.0005544,19.413 L2.46446609,26.9497475 L1.05025253,25.5355339 L8.58455444,18 L5.98996079,18 L4.00055444,16 L12.0005544,16 Z M25.5355339,1.05025253 L26.9497475,2.46446609 L19.4125544,10 L22.0111481,10.0005544 L24.0005544,12.0005544 L16.0005544,12.0005544 L16.0005544,4 L18,6.01125541 L17.9995544,8.585 L25.5355339,1.05025253 Z M9.00055444,1 L7.01114809,3 L3,3 L3,6.98929903 L1.00055444,9.00055444 L1.00055444,1 L9.00055444,1 Z" id="形状结合" fill="url(#linearGradient-1)"></path>
                <polygon id="矩形" opacity="0.438476562" points="0 0 28 0 28 28 0 28"></polygon>
            </g>
        </g>
    </g>
</svg>