<?xml version="1.0" encoding="UTF-8"?>
<svg width="28px" height="30px" viewBox="0 0 28 30" version="1.1" xmlns="http://www.w3.org/2000/svg" xmlns:xlink="http://www.w3.org/1999/xlink">
    <title>手机预览/黑</title>
    <defs>
        <linearGradient x1="50%" y1="0%" x2="50%" y2="100%" id="linearGradient-1">
            <stop stop-color="#F2F2F2" offset="0%"></stop>
            <stop stop-color="#95A2BD" offset="100%"></stop>
        </linearGradient>
    </defs>
    <g id="UI-KIT文件(黑色）" stroke="none" stroke-width="1" fill="none" fill-rule="evenodd">
        <g id="UI" transform="translate(-2266.000000, -232.000000)">
            <g id="手机预览/黑" transform="translate(2266.000000, 232.500000)">
                <rect id="矩形" x="0" y="1" width="28" height="28"></rect>
                <g id="手机" transform="translate(4.430092, 0.000000)" fill="url(#linearGradient-1)">
                    <path d="M10.8925077,3.75806084 C10.8925077,6.23740405 12.9024125,8.24730884 15.3817557,8.24730884 C15.7753424,8.24730884 16.157099,8.19665842 16.5208631,8.10152018 L16.5204326,26.0670246 C16.5204326,27.625435 15.2959673,28.9055578 13.7594224,28.9950074 L13.5874573,29 L2.93297535,29 C1.37456497,29 0.0944421725,27.7755347 0.00499259781,26.2389898 L0,26.0670246 L0,6.73332995 C0,5.17491958 1.22446529,3.89479677 2.76101021,3.8053472 L2.93297535,3.8003546 L10.893,3.80006084 L10.8925077,3.75806084 Z M8.26021631,25.2888883 C7.54193663,25.2888883 7.00322687,25.8874547 7.00322687,26.5458778 C7.00322687,27.2641574 7.60179328,27.8028672 8.26021631,27.8028672 C8.97849598,27.8028672 9.51720573,27.2641574 9.51720573,26.5458778 C9.51720573,25.8275981 8.91863935,25.2888883 8.26021631,25.2888883 Z M14.1451635,9.00170898 L2.37526911,9.00170898 C2.18196945,9.00170898 2.02069419,9.13882178 1.98339569,9.32109503 L1.97526911,9.40170898 L1.97526911,23.3924723 C1.97526911,23.585772 2.1123819,23.7470472 2.29465516,23.7843457 L2.37526911,23.7924723 L14.1451635,23.7924723 C14.3384632,23.7924723 14.4997384,23.6553595 14.5370369,23.4730863 L14.5451635,23.3924723 L14.5451635,9.40170898 C14.5451635,9.18079508 14.3660774,9.00170898 14.1451635,9.00170898 Z M15.3817557,0 C17.4572754,0 19.1398165,1.68254115 19.1398165,3.75806084 C19.1398165,5.83358054 17.4572754,7.51612169 15.3817557,7.51612169 C13.306236,7.51612169 11.6236948,5.83358054 11.6236948,3.75806084 C11.6236948,1.68254115 13.306236,0 15.3817557,0 Z M9.21792256,4.75806084 L7.30251007,4.75806084 C7.06308349,4.75806084 6.82365694,4.9974874 6.82365694,5.23691395 C6.82365694,5.44973755 7.0128335,5.66256116 7.22302965,5.70722784 L7.30251007,5.71576706 L9.21792256,5.71576706 C9.45734911,5.71576706 9.69677566,5.4763405 9.69677566,5.23691395 C9.69677566,4.9974874 9.45734911,4.75806084 9.21792256,4.75806084 Z M15.3817557,2.05809889 C13.6817937,2.05809889 12.5484835,3.75806084 12.5484835,3.75806084 C12.5484835,3.75806084 12.5661914,3.78462275 12.6005006,3.83110608 L12.690926,3.94866711 C13.0452903,4.39259525 14.0359525,5.4580228 15.3817557,5.4580228 C17.0817176,5.4580228 18.2150279,3.75806084 18.2150279,3.75806084 C18.2150279,3.75806084 17.0808856,2.05809889 15.3817557,2.05809889 Z M15.3817557,2.62391166 C16.0043265,2.62391166 16.5092279,3.12880619 16.5092279,3.75138384 C16.5083889,4.37478665 16.0043333,4.87885601 15.3817557,4.87885601 C14.7591849,4.87885601 14.2542835,4.37396148 14.2542835,3.75138384 C14.2542835,3.12880619 14.759178,2.62391166 15.3817557,2.62391166 Z M15.3792527,3.19057023 C15.2315333,3.19057023 15.0846598,3.25149534 14.9803376,3.35581069 C14.8760222,3.46096496 14.8150971,3.60700644 14.8150971,3.75472578 C14.8150971,3.90244511 14.8760222,4.04931864 14.9803376,4.15364087 C15.0846529,4.25796309 15.2315333,4.31888133 15.3792527,4.31888133 C15.526972,4.31888133 15.6738455,4.25795622 15.7781678,4.15364087 C15.8824831,4.04932552 15.9434082,3.90244511 15.9434082,3.75472578 C15.9434082,3.60700644 15.8824831,3.46013291 15.7781678,3.35581069 C15.6738524,3.25149534 15.526972,3.19057023 15.3792527,3.19057023 Z" id="形状结合"></path>
                </g>
            </g>
        </g>
    </g>
</svg>