<?xml version="1.0" encoding="UTF-8"?>
<svg width="28px" height="28px" viewBox="0 0 28 28" version="1.1" xmlns="http://www.w3.org/2000/svg" xmlns:xlink="http://www.w3.org/1999/xlink">
    <title>信息</title>
    <defs>
        <linearGradient x1="50%" y1="0%" x2="50%" y2="100%" id="linearGradient-1">
            <stop stop-color="#F2F2F2" offset="0%"></stop>
            <stop stop-color="#95A2BD" offset="100%"></stop>
        </linearGradient>
        <path d="M11,0 C17.0751322,0 22,4.92486775 22,11 C22,13.0539249 21.4370728,14.9763712 20.4570856,16.6214715 C18.7079616,18.6995488 19.2222664,20.4923916 22,22 L22,22 L11,22 C4.92486775,22 0,17.0751322 0,11 C0,4.92486775 4.92486775,0 11,0 Z M5.23809524,9.1 C4.08092719,9.1 3.14285714,10.03807 3.14285714,11.1952381 C3.14285714,12.3524061 4.08092719,13.2904762 5.23809524,13.2904762 C6.39526329,13.2904762 7.33333333,12.3524061 7.33333333,11.1952381 C7.33333333,10.03807 6.39526329,9.1 5.23809524,9.1 Z M11,9.1 C9.84283195,9.1 8.9047619,10.03807 8.9047619,11.1952381 C8.9047619,12.3524061 9.84283195,13.2904762 11,13.2904762 C12.157168,13.2904762 13.0952381,12.3524061 13.0952381,11.1952381 C13.0952381,10.03807 12.157168,9.1 11,9.1 Z M16.7619048,9.1 C15.6047367,9.1 14.6666667,10.03807 14.6666667,11.1952381 C14.6666667,12.3524061 15.6047367,13.2904762 16.7619048,13.2904762 C17.9190728,13.2904762 18.8571429,12.3524061 18.8571429,11.1952381 C18.8571429,10.03807 17.9190728,9.1 16.7619048,9.1 Z" id="path-2"></path>
    </defs>
    <g id="页面-绿" stroke="none" stroke-width="1" fill="none" fill-rule="evenodd">
        <g id="UI_kit" transform="translate(-2168.000000, -253.000000)">
            <g id="信息" transform="translate(2168.000000, 253.000000)">
                <rect id="矩形备份-14" x="0" y="0" width="28" height="28"></rect>
                <g id="Combined-Shape" transform="translate(3.000000, 3.000000)">
                    <use fill="url(#linearGradient-1)" xlink:href="#path-2"></use>
                    <use fill="#F8FEFF" xlink:href="#path-2"></use>
                </g>
            </g>
        </g>
    </g>
</svg>