<?xml version="1.0" encoding="UTF-8"?>
<svg width="20px" height="20px" viewBox="0 0 20 20" version="1.1" xmlns="http://www.w3.org/2000/svg" xmlns:xlink="http://www.w3.org/1999/xlink">
    <title>编组 16@2x</title>
    <g id="14.设备管理" stroke="none" stroke-width="1" fill="none" fill-rule="evenodd">
        <g id="1.2.1.3设备管理备份" transform="translate(-401, -163)">
            <g id="编组-8" transform="translate(241.4, 163)">
                <g id="编组-15" transform="translate(119.6, 0)">
                    <g id="编组-4" transform="translate(40, 0)">
                        <rect id="矩形" x="0" y="0" width="20" height="20"></rect>
                        <g id="zuhe" transform="translate(3, 3)" fill="#F0F4FF" fill-rule="nonzero">
                            <path d="M10.2055877,11 L6.97762013,11 C6.53953046,11 6.18320778,10.6432337 6.18320778,10.2045987 L6.18320778,7.82278852 L3.79441235,7.82278852 C3.35632268,7.82278852 3,7.46602226 3,7.02738723 L3,3.79540129 C3,3.35676626 3.35632268,3 3.79441235,3 L7.02237987,3 C7.46046954,3 7.81679222,3.35676626 7.81679222,3.79540129 L7.81679222,6.17721148 L10.2055877,6.17721148 C10.6436773,6.17721148 11,6.53397774 11,6.97261277 L11,10.2045987 C11,10.6432337 10.6436773,11 10.2055877,11 L10.2055877,11 Z M7.29371755,9.88796134 L9.88934396,9.88796134 L9.88934396,7.28910369 L7.29371755,7.28910369 L7.29371755,9.88796134 L7.29371755,9.88796134 Z M4.11065604,6.71089631 L6.70628245,6.71089631 L6.70628245,4.11203866 L4.11065604,4.11203866 L4.11065604,6.71089631 L4.11065604,6.71089631 Z" id="形状"></path>
                            <path d="M12.5586994,14 L1.44130061,14 C0.646553072,14 0,13.3534469 0,12.5586994 L0,1.44130061 C0,0.646553072 0.646553072,0 1.44130061,0 L12.5586994,0 C13.3534469,0 14,0.646553072 14,1.44130061 L14,12.5586994 C14,13.3534469 13.3534469,14 12.5586994,14 Z M1.44130061,1.18696264 C1.30342348,1.18696264 1.18696264,1.30342348 1.18696264,1.44130061 L1.18696264,12.5586994 C1.18696264,12.6965765 1.30342348,12.8130374 1.44130061,12.8130374 L12.5586994,12.8130374 C12.6965765,12.8130374 12.8130374,12.6965765 12.8130374,12.5586994 L12.8130374,1.44130061 C12.8130374,1.30342348 12.6965765,1.18696264 12.5586994,1.18696264 L1.44130061,1.18696264 Z" id="形状"></path>
                        </g>
                    </g>
                </g>
            </g>
        </g>
    </g>
</svg>